<svg width="360" height="441" viewBox="0 0 360 441" fill="none" xmlns="http://www.w3.org/2000/svg">
<path d="M111.497 342.302C115.1 355.364 120.445 368.966 131.577 376.726C142.188 384.115 157.206 384.523 168.207 377.782L169.408 377.032C170.957 376.078 172.554 375.179 174.344 375.185C176.133 375.191 177.706 376.06 179.226 376.93C181.772 378.393 184.288 379.911 186.774 381.482L188.881 380.283C184.878 377.644 180.737 375.199 176.457 372.948C180.789 361.945 184.792 350.82 188.467 339.573C206.95 283.264 217.939 224.701 224.496 165.879C247.583 159.655 271.196 155.575 295.034 153.693C301.88 153.129 308.737 152.749 315.607 152.553C321.341 152.397 327.556 153.153 333.207 152.139C337.494 151.366 341.229 149.309 341.944 144.769C342.496 141.278 341.944 137.236 338.942 134.987C338.824 134.896 338.702 134.812 338.575 134.735L334.6 133.89L319.396 130.657C301.309 128.858 282.953 127.119 265.052 130.255C248.077 133.254 228.976 140.127 214.924 130.165C212.684 128.576 209.1 120.336 206.457 119.586C204.001 118.89 198.399 119.664 195.913 120.24C170.092 126.177 132.73 148.565 127.855 177.544C126.618 184.885 139.492 190.738 143.623 196.921C157.927 218.313 170.044 240.467 169.858 265.386C169.85 266.235 169.614 267.066 169.174 267.792C168.734 268.518 168.107 269.113 167.359 269.514C166.61 269.916 165.767 270.109 164.918 270.074C164.069 270.039 163.245 269.776 162.532 269.314L129.662 242.764L99.1095 228.287C94.0235 263.845 101.968 307.943 111.497 342.302Z" fill="white"/>
<path opacity="0.33" d="M145.533 429.898C79.2916 429.898 25.5926 423.142 25.5926 414.809C25.5926 406.475 79.2916 399.72 145.533 399.72C211.774 399.72 265.473 406.475 265.473 414.809C265.473 423.142 211.774 429.898 145.533 429.898Z" fill="#ADADAD"/>
<path d="M217.248 204.345C228.753 208.544 252.172 198.396 267.244 188.753C270.307 186.797 274.924 187.817 273.597 191.193C273.597 191.193 272.811 195.493 272.805 195.517C261.149 224.904 232.416 251.04 205.551 267.725L217.248 204.345Z" fill="#1868E8"/>
<path d="M285.612 89.3598C307.494 92.8982 332.378 105.594 346.261 122.801C349.744 127.101 350.302 136.595 344.79 136.025L319.383 130.627C301.297 128.828 282.94 127.089 265.04 130.225C248.064 133.224 228.963 140.097 214.912 130.135C212.672 128.546 209.087 120.306 206.445 119.556C203.989 118.86 198.386 119.634 195.9 120.21C170.08 126.147 132.718 148.535 127.842 177.514C126.605 184.855 139.479 190.708 143.611 196.891C157.914 218.284 170.032 240.438 169.846 265.356C169.837 266.205 169.601 267.036 169.161 267.762C168.722 268.488 168.095 269.083 167.346 269.485C166.597 269.886 165.754 270.079 164.905 270.044C164.056 270.009 163.233 269.747 162.52 269.285L129.649 242.735L99.097 228.257C94.0049 263.839 101.949 307.937 111.479 342.296C115.082 355.358 120.426 368.96 131.559 376.72C142.169 384.109 157.187 384.517 168.188 377.776C170.11 376.576 172.067 375.173 174.319 375.179C176.067 375.179 177.682 376.055 179.201 376.924C193.415 385.074 206.589 394.911 218.437 406.221C219.049 406.79 219.486 407.521 219.699 408.329C219.911 409.137 219.89 409.989 219.637 410.785C218.503 414.125 214.299 413.37 211.339 412.248C182.071 401.165 149.639 393.057 119.748 402.323C103.865 407.253 88.8287 417.022 72.2134 416.189C83.2863 403.594 100.706 386.25 111.773 373.668C119.91 364.426 115.562 367.538 108.567 351.382C91.7951 312.657 70.9224 275.678 59.0929 235.172C41.9492 239.76 27.0873 249.494 13.4564 260.876C9.8535 244.084 13.2522 224.743 18.7947 208.34C24.4992 191.452 31.3087 178.354 37.7458 170.701C42.4236 165.166 47.1734 166.065 49.8575 153.399C51.9892 143.335 57.6638 103.196 60.7262 93.366C64.0829 82.7628 70.1538 73.1671 76.5729 64.0812C96.3888 36.0558 123.068 9.39182 157.085 4.70793C176.757 2.02114 189.794 2.7828 209.015 7.77855C217.848 10.0695 233.635 16.7265 241.177 21.9022C255.967 32.0976 267.292 46.8749 276.359 62.186C279.325 67.2058 282.094 72.5314 283.222 78.2948C284.081 82.6548 283.673 90.1334 289.443 91.6807C309.105 96.957 327.322 106.592 342.742 119.868C345.144 121.937 347.588 124.282 348.339 127.365C349.089 130.447 347.294 134.322 344.135 134.609" fill="#1868E8"/>
<path d="M224.568 165.1C218.053 224.173 207.046 283.001 188.485 339.549C184.318 352.24 179.748 364.788 174.776 377.194C173.797 379.593 167.492 377.248 168.459 374.837C188.395 325.222 201.539 273.057 210.336 220.395C213.471 201.603 216.073 182.73 218.143 163.775C218.467 160.83 224.85 162.725 224.586 165.1H224.568Z" fill="#0B172D"/>
<path d="M174.049 371.665C183.13 376.27 191.74 381.749 199.755 388.026C203.592 391.024 207.321 394.131 210.996 397.309C214.671 400.488 219.313 403.649 222.369 407.439C224.171 409.7 224.297 412.836 221.829 414.684C218.4 417.292 213.915 414.684 210.594 413.31C200.479 408.923 189.947 405.561 179.159 403.277C168.819 401.233 158.284 400.342 147.748 400.62C136.939 400.86 126.599 403.283 116.337 406.473C106.597 409.472 97.0372 413.07 87.3094 416.171C83.7605 417.292 79.0347 419.559 75.2517 418.996C72.2793 418.552 68.6464 415.811 69.7813 412.399C70.3218 410.809 72.0992 409.358 73.18 408.099C74.8734 406.131 76.5868 404.184 78.3201 402.257C82.0672 398.083 85.9082 393.995 89.8434 389.993C97.3914 382.334 105.306 374.897 114.127 368.708C116.168 367.275 122.005 370.418 119.861 371.923C106.176 381.519 94.371 393.909 83.2861 406.329C82.0571 407.717 80.8342 409.116 79.6172 410.527C78.8006 411.475 77.2153 414.204 76.0984 414.78H74.1408C75.0415 414.546 75.9423 414.3 76.831 414.048L79.0888 413.388C81.4126 412.692 83.7245 411.949 86.0303 411.187C94.7613 408.314 103.39 405.142 112.169 402.437C120.408 399.9 128.815 397.621 137.426 396.782C146.309 395.993 155.249 396.077 164.117 397.034C172.983 397.925 181.751 399.609 190.316 402.065C194.639 403.301 198.909 404.7 203.124 406.263C205.226 407.063 207.315 407.879 209.393 408.71C210.882 409.31 215.314 412.129 216.683 410.971C219.457 408.632 209.405 401.579 207.604 400.008C203.923 396.812 200.2 393.663 196.363 390.652C188.505 384.419 180.037 378.994 171.088 374.46C170.026 373.926 168.795 372.607 169.701 371.461C170.608 370.316 173.07 371.173 174.049 371.665Z" fill="#0B172D"/>
<path d="M282.904 88.0283C274.966 50.5632 244.779 19.7131 207.73 10.4773C173.502 1.94913 135.468 9.96751 107.99 32.1635C80.0616 54.7313 64.1548 88.652 57.2733 123.322C49.7793 161.171 52.8958 200.532 63.5303 237.469C69.9014 259.599 78.7465 280.943 87.6817 302.138C97.4875 325.401 109.167 347.717 120.054 370.507C121.453 373.434 114.956 372.414 113.929 370.267C103.847 349.181 92.8458 328.538 83.7065 307.014C75.2217 287.025 66.7789 266.952 60.1496 246.255C47.8878 207.968 43.174 167.469 49.7553 127.622C55.7601 91.2489 71.4867 55.0552 100.1 30.7961C127.746 7.29272 166.044 -1.73922 201.473 5.12769C239.495 12.4984 271.897 39.1324 285.396 75.6199C287.045 80.0979 288.366 84.69 289.347 89.3597C289.894 91.9446 283.426 90.4932 282.904 88.0283Z" fill="#0B172D"/>
<path d="M102.213 155.432C128.964 171.983 149.84 196.5 161.901 225.528C164.87 232.74 167.26 240.176 169.047 247.766C169.924 251.467 170.65 255.209 171.215 258.969C171.749 262.514 173.016 267.761 171.1 271.126C167.185 278.119 159.055 268.091 156.275 265.47C149.987 259.55 143.284 254.085 136.219 249.116C120.09 237.759 102.178 229.169 83.2201 223.699C82.1032 223.375 79.7253 222.536 79.7974 221.006C79.8694 219.477 81.6829 219.321 82.7998 219.645C112.905 228.231 140.429 244.091 162.94 265.824C163.54 266.394 164.141 266.97 164.699 267.551L165.57 268.421C166.771 269.285 166.771 269.531 165.528 269.171L164.621 269.039C165.129 268.058 165.42 266.981 165.474 265.878C165.527 265.079 165.527 264.278 165.474 263.479C165.306 259.665 164.537 255.803 163.817 252.084C162.395 244.796 160.386 237.634 157.812 230.668C152.687 216.734 145.462 203.663 136.387 191.908C126.115 178.574 113.522 167.197 99.2109 158.323C95.3919 155.966 99.277 153.735 102.171 155.522L102.213 155.432Z" fill="#0B172D"/>
<path d="M203.13 265.824C222.444 253.72 239.418 238.242 253.241 220.131C259.618 211.735 266.397 202.019 269.712 191.908C269.862 191.446 270.486 190.156 269.982 189.886C269.766 189.767 267.55 191.392 267.244 191.572C264.98 192.921 262.668 194.181 260.32 195.374C255.624 197.766 250.785 199.867 245.831 201.665C236.901 204.91 227.023 207.77 217.446 206.373C214.089 205.887 212.606 201.671 217.05 202.325C227.636 203.866 239.766 198.559 248.917 194.696C253.768 192.605 258.467 190.178 262.98 187.434C266.889 185.095 271.087 184.195 274.738 187.811C278.389 191.428 275.476 195.812 273.699 199.566C271.096 205.024 268.096 210.284 264.722 215.303C257.627 225.831 249.421 235.569 240.246 244.348C230.385 253.898 219.549 262.391 207.916 269.687C205.911 270.934 200.266 267.647 203.112 265.854L203.13 265.824Z" fill="#0B172D"/>
<path d="M52.0374 158.275C36.8752 172.303 24.7155 191.056 18.3564 210.727C14.4854 222.514 12.6577 234.874 12.952 247.275C12.9809 250.261 13.2055 253.242 13.6246 256.199C13.6855 256.509 13.8271 256.798 14.0353 257.036C14.2434 257.274 14.5107 257.453 14.8103 257.555C15.1098 257.657 15.4309 257.679 15.7414 257.618C16.0519 257.556 16.3408 257.415 16.579 257.206C17.1014 256.733 17.5578 256.283 17.7799 256.091C22.1988 252.585 26.8096 249.327 31.591 246.333C39.5233 241.362 47.9541 237.409 56.4329 233.493C58.5766 232.498 64.2031 235.94 61.2367 237.319C52.4397 241.38 43.7027 245.488 35.5241 250.711C32.6618 252.538 29.8596 254.472 27.1174 256.511C24.7155 258.31 22.3856 260.835 19.7375 262.172C16.2307 263.971 11.2647 262.592 8.82074 259.593C7.24147 257.65 7.13942 255.197 6.89322 252.798C6.52592 249.142 6.36551 245.468 6.4128 241.793C6.52199 234.943 7.26173 228.117 8.6226 221.403C11.0179 209.662 15.219 198.364 21.0766 187.908C27.7659 175.823 36.0886 164.464 46.2968 155.066C48.0982 153.375 54.103 156.38 52.0313 158.281L52.0374 158.275Z" fill="#0B172D"/>
<path d="M338.947 134.939C341.949 137.188 342.484 141.23 341.949 144.721C341.235 149.261 337.5 151.318 333.212 152.092C327.562 153.105 321.347 152.349 315.612 152.505C308.747 152.697 301.889 153.077 295.04 153.645C267.526 155.93 240.204 160.818 213.855 168.938C213.073 169.162 212.248 169.19 211.453 169.02C210.658 168.849 209.918 168.485 209.297 167.96C208.564 167.307 207.496 165.598 209.069 165.112C232.493 157.972 256.548 153.09 280.904 150.532C292.382 149.285 303.895 148.527 315.444 148.259C320.542 148.139 327.388 149.387 332.119 147.228C334.521 146.136 335.404 144.661 335.644 142.1C335.776 140.649 335.872 137.824 334.611 136.87C333.524 136.049 333.17 134.813 334.383 134.016C335.596 133.218 337.938 134.232 338.947 134.993V134.939Z" fill="#0B172D"/>
<path d="M161.985 96.8928C161.675 99.3274 162.127 101.798 163.28 103.966C164.432 106.134 166.228 107.892 168.42 109C170.613 110.107 173.096 110.51 175.527 110.152C177.958 109.794 180.218 108.694 181.998 107.002C183.778 105.309 184.99 103.108 185.467 100.701C185.944 98.2934 185.663 95.7974 184.663 93.5555C183.663 91.3137 181.993 89.4359 179.882 88.18C177.771 86.9242 175.322 86.3518 172.872 86.5414C170.142 86.7527 167.569 87.8977 165.586 89.7834C163.602 91.669 162.331 94.1799 161.985 96.8928Z" fill="black"/>
<path d="M219.673 41.069C206.415 33.7079 197.261 24.8774 199.226 21.3456C201.192 17.8137 213.534 20.9179 226.792 28.279C240.05 35.6401 249.204 44.4705 247.238 48.0024C245.273 51.5343 232.931 48.4301 219.673 41.069Z" fill="#7AC1FC"/>
<path d="M165.444 94.883C166.339 96.2804 168.855 96.2024 171.065 94.7151C173.275 93.2277 174.349 90.8888 173.467 89.4974C172.584 88.1061 170.062 88.178 167.846 89.6653C165.63 91.1527 164.55 93.4916 165.444 94.883Z" fill="white"/>
<path d="M324.613 119.532L338.923 130.597L333.579 122.345L324.613 119.532Z" fill="#1868E8"/>
<path d="M285.613 89.3594L287.12 90.5588L287.168 90.6008C287.192 90.626 287.221 90.6464 287.252 90.6608L324.614 119.556L338.924 130.597L342.076 135.455L344.808 136.054C350.321 136.594 349.762 127.13 346.279 122.83C332.468 105.744 307.849 93.1017 286.069 89.4673L285.613 89.3594Z" fill="#1868E8"/>
<path d="M75.252 418.983C79.0351 419.547 83.7609 417.28 87.3097 416.159C97.0375 413.076 106.597 409.49 116.337 406.461C126.599 403.271 136.964 400.848 147.748 400.608C158.285 400.334 168.82 401.229 179.159 403.277C189.948 405.561 200.479 408.922 210.594 413.31C213.915 414.713 218.401 417.292 221.829 414.683C224.297 412.806 224.183 409.7 222.37 407.439C219.313 403.648 214.684 400.494 210.997 397.309C207.31 394.125 203.593 391.024 199.756 388.025C196.237 385.291 192.616 382.692 188.893 380.229C184.89 377.59 180.749 375.145 176.469 372.894C180.801 361.891 184.804 350.766 188.479 339.519C206.962 283.211 217.95 224.647 224.508 165.826C247.594 159.601 271.207 155.522 295.046 153.639C301.892 153.075 308.749 152.696 315.619 152.5C321.353 152.344 327.568 153.099 333.219 152.086C337.506 151.312 341.241 149.255 341.956 144.715C342.508 141.225 341.956 137.182 338.953 134.934C338.836 134.843 338.714 134.759 338.587 134.682C337.536 134.016 335.759 133.314 334.612 133.836C334.533 133.868 334.459 133.908 334.39 133.956C333.189 134.754 333.531 135.989 334.618 136.811C335.879 137.764 335.783 140.589 335.651 142.04C335.41 144.601 334.51 146.076 332.126 147.168C327.394 149.327 320.548 148.08 315.45 148.2C303.913 148.455 292.4 149.213 280.911 150.473C256.553 153.04 232.498 157.932 209.075 165.082C207.484 165.568 208.571 167.277 209.303 167.931C209.924 168.456 210.665 168.819 211.46 168.99C212.255 169.16 213.079 169.132 213.861 168.908C215.128 168.518 216.401 168.141 217.674 167.763C215.673 185.355 213.229 202.889 210.342 220.365C201.755 271.774 189.025 322.703 169.876 371.251C169.815 371.307 169.759 371.367 169.708 371.431C169.59 371.57 169.503 371.732 169.451 371.906C169.399 372.081 169.384 372.264 169.407 372.444C169.095 373.23 168.807 374.022 168.465 374.807C168.122 375.593 168.615 376.391 169.425 377.002C171.077 378.262 174.127 378.802 174.782 377.164C174.872 376.942 174.956 376.727 175.04 376.511C182.536 380.601 189.672 385.32 196.369 390.616C200.206 393.615 203.929 396.775 207.61 399.972C209.411 401.543 219.464 408.596 216.689 410.935C215.32 412.093 210.889 409.28 209.4 408.674C207.322 407.823 205.232 407.007 203.13 406.227C198.915 404.66 194.646 403.261 190.322 402.029C181.755 399.58 172.985 397.905 164.117 397.021C155.25 396.065 146.31 395.981 137.426 396.77C128.815 397.621 120.408 399.9 112.17 402.419C103.391 405.124 94.7557 408.296 86.0307 411.169C83.7249 411.931 81.413 412.674 79.0891 413.37C78.3926 413.574 77.696 413.784 76.9935 413.97C77.9542 412.914 78.9991 411.193 79.6176 410.479C80.8185 409.08 82.0415 407.681 83.2865 406.281C94.3714 393.861 106.177 381.476 119.862 371.875C122.006 370.369 116.169 367.227 114.127 368.66C105.306 374.849 97.3918 382.286 89.8437 389.945C85.8966 393.943 82.0555 398.033 78.3205 402.215C76.5871 404.142 74.8737 406.087 73.1804 408.05C72.0995 409.31 70.3221 410.761 69.7817 412.35C68.6288 415.799 72.2797 418.54 75.252 418.983Z" fill="#0B172D"/>
<path d="M272.588 84.592C287.342 87.5246 301.94 91.7587 315.565 98.2598C322.722 101.634 329.481 105.793 335.717 110.662C341.445 115.19 349.023 121.367 351.714 128.354C352.734 130.999 352.77 134.292 350.867 136.565C348.591 139.293 344.862 139.185 341.655 138.682C331.339 137.074 321.179 134.615 310.827 133.17C300.474 131.725 289.978 131.005 279.572 131.971C269.544 132.894 259.72 135.203 249.812 136.9C240.072 138.568 229.564 140.205 219.938 137.08C212.192 134.567 205.106 128.336 204.434 119.832C204.386 119.202 204.776 118.873 205.262 118.585L213.543 113.655C215.344 112.575 220.905 115.772 218.803 117.175C212.805 121.238 205.617 123.176 198.387 122.681C197.084 122.603 194.724 121.895 194.303 120.432C193.883 118.968 194.976 118.339 196.345 118.423C202.265 118.833 208.152 117.258 213.075 113.949L218.329 117.469L210.054 122.399L210.883 121.145C212.384 140.157 239.153 134.07 251.115 131.845C267.874 128.726 283.949 126.333 301.045 127.988C309.452 128.798 317.762 130.183 326.049 131.725C329.826 132.426 333.597 133.164 337.368 133.896C339.236 134.256 341.854 135.185 343.673 134.37C345.811 133.416 346.225 131.029 345.763 128.924C345 125.47 341.86 122.441 339.494 119.928C336.969 117.271 334.254 114.801 331.369 112.539C326.003 108.361 320.213 104.757 314.093 101.786C301.147 95.3811 287.072 91.4409 272.966 88.6401C269.676 87.9864 268.163 83.7044 272.57 84.586L272.588 84.592Z" fill="#0B172D"/>
</svg>
