<svg width="338" height="414" viewBox="0 0 338 414" fill="none" xmlns="http://www.w3.org/2000/svg">
<path d="M274.612 86.3598C296.494 89.8982 321.378 102.594 335.261 119.801C338.744 124.101 339.302 133.594 333.79 133.025L308.383 127.627C290.297 125.828 271.94 124.089 254.04 127.225C237.064 130.224 217.963 137.097 203.912 127.135C201.672 125.546 198.087 117.306 195.445 116.556C192.989 115.86 187.386 116.634 184.9 117.21C159.08 123.147 121.718 145.535 116.842 174.514C115.605 181.855 128.479 187.708 132.611 193.891C146.914 215.284 159.032 237.438 158.846 262.357C158.837 263.205 158.601 264.036 158.161 264.762C157.722 265.488 157.095 266.083 156.346 266.485C155.597 266.886 154.754 267.079 153.905 267.044C153.056 267.009 152.233 266.747 151.52 266.285L118.649 239.735L88.097 225.257C83.0049 260.839 90.9492 304.937 100.479 339.296C104.082 352.358 109.426 365.96 120.559 373.72C131.169 381.109 146.187 381.517 157.188 374.776C159.11 373.576 161.067 372.173 163.319 372.179C165.067 372.179 166.682 373.055 168.201 373.924C182.415 382.074 195.589 391.911 207.437 403.221C208.049 403.79 208.486 404.521 208.699 405.329C208.911 406.137 208.89 406.989 208.637 407.785C207.503 411.125 203.299 410.37 200.339 409.248C171.071 398.165 138.639 390.057 108.748 399.323C92.8648 404.253 77.8287 414.022 61.2134 413.189C72.2863 400.594 89.7062 383.25 100.773 370.668C108.91 361.426 104.562 364.538 97.5666 348.382C80.7951 309.657 59.9224 272.678 48.0929 232.172C30.9492 236.76 16.0873 246.494 2.45639 257.876C-1.14648 241.084 2.25223 221.743 7.79468 205.34C13.4992 188.452 20.3087 175.354 26.7458 167.701C31.4236 162.166 36.1734 163.065 38.8575 150.399C40.9892 140.335 46.6638 100.196 49.7262 90.366C53.0829 79.7628 59.1538 70.1671 65.5729 61.0812C85.3888 33.0558 112.068 6.39182 146.085 1.70793C165.757 -0.978856 178.794 -0.217202 198.015 4.77855C206.848 7.06952 222.635 13.7265 230.177 18.9022C244.967 29.0976 256.292 43.8749 265.359 59.186C268.325 64.2058 271.094 69.5314 272.222 75.2948C273.081 79.6548 272.673 87.1334 278.443 88.6807C298.105 93.957 316.322 103.592 331.742 116.868C334.144 118.937 336.588 121.282 337.339 124.365C338.089 127.447 336.294 131.322 333.135 131.609" fill="#1868E8"/>
</svg>
