<svg width="460" height="221" viewBox="0 0 460 221" fill="none" xmlns="http://www.w3.org/2000/svg">
<g opacity="0.1">
<path d="M0 188.07C151.2 188.07 151.2 253.388 302.4 253.388C453.6 253.388 453.6 188.07 604.764 188.07C755.928 188.07 755.964 253.388 907.164 253.388C1058.36 253.388 1058.4 188.07 1209.6 188.07C1360.8 188.07 1360.8 253.388 1512 253.388" stroke="#EAF0FC" stroke-miterlimit="10"/>
<path d="M0 -41.7058C151.2 -41.7058 151.2 23.6126 302.4 23.6126C453.6 23.6126 453.6 -41.7058 604.764 -41.7058C755.928 -41.7058 755.964 23.6126 907.164 23.6126C1058.36 23.6126 1058.4 -41.7058 1209.6 -41.7058C1360.8 -41.7058 1360.8 23.6126 1512 23.6126" stroke="#EAF0FC" stroke-miterlimit="10"/>
<path d="M0 34.886C151.2 34.886 151.2 100.204 302.4 100.204C453.6 100.204 453.6 34.886 604.764 34.886C755.928 34.886 755.964 100.204 907.164 100.204C1058.36 100.204 1058.4 34.886 1209.6 34.886C1360.8 34.886 1360.8 100.204 1512 100.204" stroke="#EAF0FC" stroke-miterlimit="10"/>
<path d="M0 126.796C151.2 126.796 151.2 192.115 302.4 192.115C453.6 192.115 453.6 126.796 604.764 126.796C755.928 126.796 755.964 192.115 907.164 192.115C1058.36 192.115 1058.4 126.796 1209.6 126.796C1360.8 126.796 1360.8 192.115 1512 192.115" stroke="#EAF0FC" stroke-miterlimit="10"/>
<path d="M0 218.706C151.2 218.706 151.2 284.025 302.4 284.025C453.6 284.025 453.6 218.706 604.764 218.706C755.928 218.706 755.964 284.025 907.164 284.025C1058.36 284.025 1058.4 218.706 1209.6 218.706C1360.8 218.706 1360.8 284.025 1512 284.025" stroke="#EAF0FC" stroke-miterlimit="10"/>
<path d="M0 -11.0691C151.2 -11.0691 151.2 54.2493 302.4 54.2493C453.6 54.2493 453.6 -11.0691 604.764 -11.0691C755.928 -11.0691 755.964 54.2493 907.164 54.2493C1058.36 54.2493 1058.4 -11.0691 1209.6 -11.0691C1360.8 -11.0691 1360.8 54.2493 1512 54.2493" stroke="#EAF0FC" stroke-miterlimit="10"/>
<path d="M0 65.5227C151.2 65.5227 151.2 130.841 302.4 130.841C453.6 130.841 453.6 65.5227 604.764 65.5227C755.928 65.5227 755.964 130.841 907.164 130.841C1058.36 130.841 1058.4 65.5227 1209.6 65.5227C1360.8 65.5227 1360.8 130.841 1512 130.841" stroke="#EAF0FC" stroke-miterlimit="10"/>
<path d="M0 157.433C151.2 157.433 151.2 222.751 302.4 222.751C453.6 222.751 453.6 157.433 604.764 157.433C755.928 157.433 755.964 222.751 907.164 222.751C1058.36 222.751 1058.4 157.433 1209.6 157.433C1360.8 157.433 1360.8 222.751 1512 222.751" stroke="#EAF0FC" stroke-miterlimit="10"/>
<path d="M0 203.388C151.2 203.388 151.2 268.706 302.4 268.706C453.6 268.706 453.6 203.388 604.764 203.388C755.928 203.388 755.964 268.706 907.164 268.706C1058.36 268.706 1058.4 203.388 1209.6 203.388C1360.8 203.388 1360.8 268.706 1512 268.706" stroke="#EAF0FC" stroke-miterlimit="10"/>
<path d="M0 -26.3875C151.2 -26.3875 151.2 38.9309 302.4 38.9309C453.6 38.9309 453.6 -26.3875 604.764 -26.3875C755.928 -26.3875 755.964 38.9309 907.164 38.9309C1058.36 38.9309 1058.4 -26.3875 1209.6 -26.3875C1360.8 -26.3875 1360.8 38.9309 1512 38.9309" stroke="#EAF0FC" stroke-miterlimit="10"/>
<path d="M0 50.2043C151.2 50.2043 151.2 115.523 302.4 115.523C453.6 115.523 453.6 50.2043 604.764 50.2043C755.928 50.2043 755.964 115.523 907.164 115.523C1058.36 115.523 1058.4 50.2043 1209.6 50.2043C1360.8 50.2043 1360.8 115.523 1512 115.523" stroke="#EAF0FC" stroke-miterlimit="10"/>
<path d="M0 142.115C151.2 142.115 151.2 207.433 302.4 207.433C453.6 207.433 453.6 142.115 604.764 142.115C755.928 142.115 755.964 207.433 907.164 207.433C1058.36 207.433 1058.4 142.115 1209.6 142.115C1360.8 142.115 1360.8 207.433 1512 207.433" stroke="#EAF0FC" stroke-miterlimit="10"/>
<path d="M0 -57.0242C151.2 -57.0242 151.2 8.29423 302.4 8.29423C453.6 8.29423 453.6 -57.0242 604.764 -57.0242C755.928 -57.0242 755.964 8.29423 907.164 8.29423C1058.36 8.29423 1058.4 -57.0242 1209.6 -57.0242C1360.8 -57.0242 1360.8 8.29423 1512 8.29423" stroke="#EAF0FC" stroke-miterlimit="10"/>
<path d="M0 19.5676C151.2 19.5676 151.2 84.886 302.4 84.886C453.6 84.886 453.6 19.5676 604.764 19.5676C755.928 19.5676 755.964 84.886 907.164 84.886C1058.36 84.886 1058.4 19.5676 1209.6 19.5676C1360.8 19.5676 1360.8 84.886 1512 84.886" stroke="#EAF0FC" stroke-miterlimit="10"/>
<path d="M0 111.478C151.2 111.478 151.2 176.796 302.4 176.796C453.6 176.796 453.6 111.478 604.764 111.478C755.928 111.478 755.964 176.796 907.164 176.796C1058.36 176.796 1058.4 111.478 1209.6 111.478C1360.8 111.478 1360.8 176.796 1512 176.796" stroke="#EAF0FC" stroke-miterlimit="10"/>
<path d="M0 4.24927C151.2 4.24927 151.2 69.5677 302.4 69.5677C453.6 69.5677 453.6 4.24927 604.764 4.24927C755.928 4.24927 755.964 69.5677 907.164 69.5677C1058.36 69.5677 1058.4 4.24927 1209.6 4.24927C1360.8 4.24927 1360.8 69.5677 1512 69.5677" stroke="#EAF0FC" stroke-miterlimit="10"/>
<path d="M0 96.1594C151.2 96.1594 151.2 161.478 302.4 161.478C453.6 161.478 453.6 96.1594 604.764 96.1594C755.928 96.1594 755.964 161.478 907.164 161.478C1058.36 161.478 1058.4 96.1594 1209.6 96.1594C1360.8 96.1594 1360.8 161.478 1512 161.478" stroke="#EAF0FC" stroke-miterlimit="10"/>
<path d="M0 80.8411C151.2 80.8411 151.2 146.159 302.4 146.159C453.6 146.159 453.6 80.8411 604.764 80.8411C755.928 80.8411 755.964 146.159 907.164 146.159C1058.36 146.159 1058.4 80.8411 1209.6 80.8411C1360.8 80.8411 1360.8 146.159 1512 146.159" stroke="#EAF0FC" stroke-miterlimit="10"/>
<path d="M0 172.751C151.2 172.751 151.2 238.07 302.4 238.07C453.6 238.07 453.6 172.751 604.764 172.751C755.928 172.751 755.964 238.07 907.164 238.07C1058.36 238.07 1058.4 172.751 1209.6 172.751C1360.8 172.751 1360.8 238.07 1512 238.07" stroke="#EAF0FC" stroke-miterlimit="10"/>
</g>
</svg>
